STARTFONT 2.1
FONT -Adobe-Palatino-Bold-R-Normal--17-120-100-100-P-91-ISO8859-1
SIZE 12 100 100
FONTBOUNDINGBOX 18 17 -2 -4

STARTPROPERTIES 26
_DEC_DEVICE_FONTNAMES "PS=Palatino-Bold"
FONTNAME_REGISTRY ""
FAMILY_NAME "Palatino"
FOUNDRY "Adobe"
WEIGHT_NAME "Bold"
SLANT "R"
SETWIDTH_NAME "Normal"
ADD_STYLE_NAME ""
PIXEL_SIZE 17
POINT_SIZE 120
RESOLUTION_X 100
RESOLUTION_Y 100
SPACING "P"
AVERAGE_WIDTH 91
CHARSET_REGISTRY "ISO8859"
CHARSET_ENCODING "1"
CHARSET_COLLECTIONS "ASCII ISO8859-1 ADOBE-STANDARD"
FULL_NAME "Palatino Bold"
COPYRIGHT "Copyright (c) 1991 Adobe Systems, Inc."
CAP_HEIGHT 12
X_HEIGHT 8
WEIGHT 10
QUAD_WIDTH 10
DEFAULT_CHAR 0
FONT_DESCENT 4
FONT_ASCENT 13
ENDPROPERTIES

CHARS 190

STARTCHAR space
ENCODING 32
SWIDTH 250 0
DWIDTH 4 0
BBX 1 1 0 0
BITMAP
00
ENDCHAR

STARTCHAR exclam
ENCODING 33
SWIDTH 278 0
DWIDTH 5 0
BBX 3 12 0 0
BITMAP
60
E0
60
60
60
60
60
60
40
00
60
60
ENDCHAR

STARTCHAR quotedbl
ENCODING 34
SWIDTH 402 0
DWIDTH 7 0
BBX 5 5 1 7
BITMAP
D8
D8
D8
90
90
ENDCHAR

STARTCHAR numbersign
ENCODING 35
SWIDTH 500 0
DWIDTH 8 0
BBX 8 12 0 0
BITMAP
12
12
12
12
7F
24
24
FE
48
48
48
48
ENDCHAR

STARTCHAR dollar
ENCODING 36
SWIDTH 500 0
DWIDTH 8 0
BBX 7 15 0 -2
BITMAP
10
10
3E
52
D2
D0
F0
7C
1E
16
96
94
78
10
10
ENDCHAR

STARTCHAR percent
ENCODING 37
SWIDTH 889 0
DWIDTH 14 0
BBX 11 12 1 0
BITMAP
3080
6F00
C900
CA00
D200
6400
04C0
09A0
0B20
1320
1340
2180
ENDCHAR

STARTCHAR ampersand
ENCODING 38
SWIDTH 833 0
DWIDTH 13 0
BBX 12 12 0 0
BITMAP
0C00
1600
2200
2400
3800
3000
39F0
5C40
CE80
C710
E7E0
79C0
ENDCHAR

STARTCHAR quoteright
ENCODING 39
SWIDTH 278 0
DWIDTH 4 0
BBX 3 5 0 7
BITMAP
60
60
C0
C0
80
ENDCHAR

STARTCHAR parenleft
ENCODING 40
SWIDTH 333 0
DWIDTH 6 0
BBX 4 14 1 -2
BITMAP
10
20
60
60
C0
C0
C0
C0
C0
C0
60
60
20
10
ENDCHAR

STARTCHAR parenright
ENCODING 41
SWIDTH 333 0
DWIDTH 6 0
BBX 4 14 1 -2
BITMAP
80
40
60
60
30
30
30
30
30
30
60
60
40
80
ENDCHAR

STARTCHAR asterisk
ENCODING 42
SWIDTH 444 0
DWIDTH 7 0
BBX 7 6 0 6
BITMAP
10
54
FE
38
6C
28
ENDCHAR

STARTCHAR plus
ENCODING 43
SWIDTH 606 0
DWIDTH 10 0
BBX 7 9 1 0
BITMAP
10
10
10
10
FE
10
10
10
10
ENDCHAR

STARTCHAR comma
ENCODING 44
SWIDTH 250 0
DWIDTH 4 0
BBX 3 5 0 -3
BITMAP
60
60
C0
C0
80
ENDCHAR

STARTCHAR minus
ENCODING 45
SWIDTH 606 0
DWIDTH 10 0
BBX 8 1 1 4
BITMAP
FF
ENDCHAR

STARTCHAR period
ENCODING 46
SWIDTH 250 0
DWIDTH 4 0
BBX 2 2 1 0
BITMAP
C0
C0
ENDCHAR

STARTCHAR slash
ENCODING 47
SWIDTH 296 0
DWIDTH 5 0
BBX 4 12 0 0
BITMAP
10
10
10
20
20
20
40
40
40
80
80
80
ENDCHAR

STARTCHAR zero
ENCODING 48
SWIDTH 500 0
DWIDTH 8 0
BBX 7 11 0 0
BITMAP
3C
4E
C6
C6
C6
C6
C6
C6
C6
E4
78
ENDCHAR

STARTCHAR one
ENCODING 49
SWIDTH 500 0
DWIDTH 8 0
BBX 7 11 0 0
BITMAP
1C
78
D8
18
18
18
18
18
18
18
7E
ENDCHAR

STARTCHAR two
ENCODING 50
SWIDTH 500 0
DWIDTH 8 0
BBX 6 11 1 0
BITMAP
78
7C
8C
8C
0C
18
10
20
40
FC
FC
ENDCHAR

STARTCHAR three
ENCODING 51
SWIDTH 500 0
DWIDTH 8 0
BBX 7 11 0 0
BITMAP
38
3C
4C
0C
18
3C
0E
86
C6
6C
78
ENDCHAR

STARTCHAR four
ENCODING 52
SWIDTH 500 0
DWIDTH 8 0
BBX 7 11 0 0
BITMAP
0C
1C
2C
2C
4C
4C
8C
FE
0C
0C
3E
ENDCHAR

STARTCHAR five
ENCODING 53
SWIDTH 500 0
DWIDTH 8 0
BBX 7 11 0 0
BITMAP
7C
7C
40
40
7C
4E
06
06
86
CC
78
ENDCHAR

STARTCHAR six
ENCODING 54
SWIDTH 500 0
DWIDTH 8 0
BBX 7 11 0 0
BITMAP
0C
30
60
40
DC
EE
C6
C6
C6
64
38
ENDCHAR

STARTCHAR seven
ENCODING 55
SWIDTH 500 0
DWIDTH 8 0
BBX 7 11 0 0
BITMAP
FE
FC
84
84
08
18
10
10
30
20
60
ENDCHAR

STARTCHAR eight
ENCODING 56
SWIDTH 500 0
DWIDTH 8 0
BBX 7 11 0 0
BITMAP
38
4C
C4
C4
78
7C
CE
86
86
CC
78
ENDCHAR

STARTCHAR nine
ENCODING 57
SWIDTH 500 0
DWIDTH 8 0
BBX 7 11 0 0
BITMAP
38
4C
C6
C6
C6
EE
76
04
0C
18
60
ENDCHAR

STARTCHAR colon
ENCODING 58
SWIDTH 250 0
DWIDTH 4 0
BBX 2 7 1 0
BITMAP
C0
C0
00
00
00
C0
C0
ENDCHAR

STARTCHAR semicolon
ENCODING 59
SWIDTH 250 0
DWIDTH 4 0
BBX 3 10 0 -3
BITMAP
60
60
00
00
00
60
60
C0
C0
80
ENDCHAR

STARTCHAR less
ENCODING 60
SWIDTH 606 0
DWIDTH 10 0
BBX 8 7 1 1
BITMAP
03
0C
30
C0
30
0C
03
ENDCHAR

STARTCHAR equal
ENCODING 61
SWIDTH 606 0
DWIDTH 10 0
BBX 8 4 1 2
BITMAP
FF
00
00
FF
ENDCHAR

STARTCHAR greater
ENCODING 62
SWIDTH 606 0
DWIDTH 10 0
BBX 8 7 1 1
BITMAP
C0
30
0C
03
0C
30
C0
ENDCHAR

STARTCHAR question
ENCODING 63
SWIDTH 444 0
DWIDTH 7 0
BBX 6 12 0 0
BITMAP
78
FC
8C
0C
1C
38
60
40
40
00
60
60
ENDCHAR

STARTCHAR at
ENCODING 64
SWIDTH 747 0
DWIDTH 12 0
BBX 11 12 0 0
BITMAP
0F00
3080
4040
4EA0
99A0
B120
B320
A340
B680
5B40
2080
1F00
ENDCHAR

STARTCHAR A
ENCODING 65
SWIDTH 778 0
DWIDTH 13 0
BBX 12 12 0 0
BITMAP
0600
0600
0F00
0B00
0B80
1180
1180
20C0
3FC0
60E0
4060
E1F0
ENDCHAR

STARTCHAR B
ENCODING 66
SWIDTH 667 0
DWIDTH 11 0
BBX 10 12 0 0
BITMAP
FF00
3180
3180
3180
3300
3F00
3180
30C0
30C0
30C0
3180
7F00
ENDCHAR

STARTCHAR C
ENCODING 67
SWIDTH 722 0
DWIDTH 12 0
BBX 10 12 1 0
BITMAP
1FC0
70C0
6040
C000
C000
C000
C000
C000
E000
6040
79C0
1F00
ENDCHAR

STARTCHAR D
ENCODING 68
SWIDTH 833 0
DWIDTH 14 0
BBX 13 12 0 0
BITMAP
FFC0
30F0
3030
3038
3018
3018
3018
3018
3038
3030
30F0
7FC0
ENDCHAR

STARTCHAR E
ENCODING 69
SWIDTH 611 0
DWIDTH 10 0
BBX 8 12 1 0
BITMAP
FF
61
61
60
62
7E
62
60
60
61
61
FF
ENDCHAR

STARTCHAR F
ENCODING 70
SWIDTH 556 0
DWIDTH 9 0
BBX 7 12 1 0
BITMAP
FE
62
62
60
64
7C
64
60
60
60
60
F0
ENDCHAR

STARTCHAR G
ENCODING 71
SWIDTH 833 0
DWIDTH 13 0
BBX 11 12 1 0
BITMAP
1FC0
70C0
6040
C000
C000
C000
C000
C3E0
E0C0
60C0
79C0
1F00
ENDCHAR

STARTCHAR H
ENCODING 72
SWIDTH 833 0
DWIDTH 14 0
BBX 12 12 1 0
BITMAP
F0F0
6060
6060
6060
6060
7FE0
6060
6060
6060
6060
6060
F0F0
ENDCHAR

STARTCHAR I
ENCODING 73
SWIDTH 389 0
DWIDTH 6 0
BBX 4 12 1 0
BITMAP
F0
60
60
60
60
60
60
60
60
60
60
F0
ENDCHAR

STARTCHAR J
ENCODING 74
SWIDTH 389 0
DWIDTH 6 0
BBX 6 15 -1 -3
BITMAP
3C
18
18
18
18
18
18
18
18
18
18
18
18
B0
E0
ENDCHAR

STARTCHAR K
ENCODING 75
SWIDTH 778 0
DWIDTH 12 0
BBX 11 12 1 0
BITMAP
F1C0
6180
6100
6200
6400
6800
7C00
6E00
6700
6380
61C0
F1E0
ENDCHAR

STARTCHAR L
ENCODING 76
SWIDTH 611 0
DWIDTH 10 0
BBX 8 12 1 0
BITMAP
F0
60
60
60
60
60
60
60
60
61
61
FF
ENDCHAR

STARTCHAR M
ENCODING 77
SWIDTH 1000 0
DWIDTH 16 0
BBX 14 12 1 0
BITMAP
E01C
6018
7038
7038
5858
5858
4C98
4C98
4718
4718
4218
E23C
ENDCHAR

STARTCHAR N
ENCODING 78
SWIDTH 833 0
DWIDTH 13 0
BBX 12 12 0 0
BITMAP
C070
6020
7020
7820
5C20
4E20
4720
43A0
41E0
40E0
4060
E020
ENDCHAR

STARTCHAR O
ENCODING 79
SWIDTH 833 0
DWIDTH 14 0
BBX 12 12 1 0
BITMAP
1F80
71E0
6060
C070
C030
C030
C030
C030
E030
6060
78E0
1F80
ENDCHAR

STARTCHAR P
ENCODING 80
SWIDTH 611 0
DWIDTH 10 0
BBX 9 12 0 0
BITMAP
FF00
3380
3180
3180
3180
3300
3600
3000
3000
3000
3000
7800
ENDCHAR

STARTCHAR Q
ENCODING 81
SWIDTH 833 0
DWIDTH 14 0
BBX 12 15 1 -3
BITMAP
1F80
71E0
6060
C070
C030
C030
C030
C030
E030
6060
78E0
1F80
0E10
1FF0
21E0
ENDCHAR

STARTCHAR R
ENCODING 82
SWIDTH 722 0
DWIDTH 12 0
BBX 10 12 1 0
BITMAP
FE00
6700
6300
6300
6300
6600
6E00
6600
6700
6380
6180
F1C0
ENDCHAR

STARTCHAR S
ENCODING 83
SWIDTH 611 0
DWIDTH 10 0
BBX 8 12 1 0
BITMAP
3E
66
C2
C2
E0
7C
3E
07
83
83
C6
FC
ENDCHAR

STARTCHAR T
ENCODING 84
SWIDTH 667 0
DWIDTH 11 0
BBX 10 12 0 0
BITMAP
FFC0
8C40
8C40
0C00
0C00
0C00
0C00
0C00
0C00
0C00
0C00
1E00
ENDCHAR

STARTCHAR U
ENCODING 85
SWIDTH 778 0
DWIDTH 13 0
BBX 11 12 1 0
BITMAP
F0E0
6040
6040
6040
6040
6040
6040
6040
6040
6040
3080
1F00
ENDCHAR

STARTCHAR V
ENCODING 86
SWIDTH 778 0
DWIDTH 13 0
BBX 12 12 0 0
BITMAP
F870
7020
3020
3840
1840
1880
1C80
0D00
0D00
0F00
0600
0600
ENDCHAR

STARTCHAR W
ENCODING 87
SWIDTH 1000 0
DWIDTH 16 0
BBX 16 12 0 0
BITMAP
F087
60C2
61C2
71C4
31C4
3264
3268
3C78
1C38
1830
1830
1830
ENDCHAR

STARTCHAR X
ENCODING 88
SWIDTH 667 0
DWIDTH 11 0
BBX 11 12 0 0
BITMAP
6060
F0C0
3080
3900
1E00
0E00
0E00
0F00
1300
2380
61C0
C1E0
ENDCHAR

STARTCHAR Y
ENCODING 89
SWIDTH 667 0
DWIDTH 11 0
BBX 11 12 0 0
BITMAP
6060
F040
3880
1880
0D00
0F00
0600
0600
0600
0600
0600
0F00
ENDCHAR

STARTCHAR Z
ENCODING 90
SWIDTH 667 0
DWIDTH 11 0
BBX 10 12 0 0
BITMAP
7FC0
4180
4380
0700
0600
0E00
1C00
1800
3800
7040
6040
FFC0
ENDCHAR

STARTCHAR bracketleft
ENCODING 91
SWIDTH 333 0
DWIDTH 6 0
BBX 4 14 1 -2
BITMAP
F0
C0
C0
C0
C0
C0
C0
C0
C0
C0
C0
C0
C0
F0
ENDCHAR

STARTCHAR backslash
ENCODING 92
SWIDTH 606 0
DWIDTH 10 0
BBX 6 12 2 0
BITMAP
80
80
40
40
20
20
10
10
08
08
04
04
ENDCHAR

STARTCHAR bracketright
ENCODING 93
SWIDTH 333 0
DWIDTH 6 0
BBX 4 14 0 -2
BITMAP
F0
30
30
30
30
30
30
30
30
30
30
30
30
F0
ENDCHAR

STARTCHAR asciicircum
ENCODING 94
SWIDTH 606 0
DWIDTH 10 0
BBX 8 7 1 5
BITMAP
18
18
3C
24
66
42
C3
ENDCHAR

STARTCHAR underscore
ENCODING 95
SWIDTH 500 0
DWIDTH 8 0
BBX 8 1 0 -2
BITMAP
FF
ENDCHAR

STARTCHAR quoteleft
ENCODING 96
SWIDTH 278 0
DWIDTH 4 0
BBX 3 5 0 7
BITMAP
20
60
60
C0
C0
ENDCHAR

STARTCHAR a
ENCODING 97
SWIDTH 500 0
DWIDTH 8 0
BBX 7 8 0 0
BITMAP
38
4C
0C
3C
CC
CC
DC
6E
ENDCHAR

STARTCHAR b
ENCODING 98
SWIDTH 611 0
DWIDTH 10 0
BBX 9 12 0 0
BITMAP
6000
E000
6000
6000
6F00
7380
6180
6180
6180
6180
7300
6E00
ENDCHAR

STARTCHAR c
ENCODING 99
SWIDTH 444 0
DWIDTH 7 0
BBX 6 8 0 0
BITMAP
3C
6C
C4
C0
C0
E0
74
38
ENDCHAR

STARTCHAR d
ENCODING 100
SWIDTH 611 0
DWIDTH 10 0
BBX 9 12 0 0
BITMAP
0300
0700
0300
0300
3B00
6700
C300
C300
C300
C300
E700
7B80
ENDCHAR

STARTCHAR e
ENCODING 101
SWIDTH 500 0
DWIDTH 8 0
BBX 7 8 0 0
BITMAP
3C
66
C6
FE
C0
E0
72
3C
ENDCHAR

STARTCHAR f
ENCODING 102
SWIDTH 389 0
DWIDTH 6 0
BBX 5 12 0 0
BITMAP
18
38
60
60
60
F8
60
60
60
60
60
F0
ENDCHAR

STARTCHAR g
ENCODING 103
SWIDTH 556 0
DWIDTH 9 0
BBX 8 12 0 -4
BITMAP
3C
6F
C6
C6
6C
38
60
7E
7F
C3
C2
7C
ENDCHAR

STARTCHAR h
ENCODING 104
SWIDTH 611 0
DWIDTH 10 0
BBX 9 12 0 0
BITMAP
6000
E000
6000
6000
6E00
7700
6300
6300
6300
6300
6300
F380
ENDCHAR

STARTCHAR i
ENCODING 105
SWIDTH 333 0
DWIDTH 5 0
BBX 4 12 0 0
BITMAP
60
60
00
00
60
E0
60
60
60
60
60
F0
ENDCHAR

STARTCHAR j
ENCODING 106
SWIDTH 333 0
DWIDTH 5 0
BBX 4 16 -1 -4
BITMAP
30
30
00
00
30
70
30
30
30
30
30
30
30
30
60
C0
ENDCHAR

STARTCHAR k
ENCODING 107
SWIDTH 611 0
DWIDTH 10 0
BBX 9 12 0 0
BITMAP
6000
E000
6000
6000
6380
6600
6800
7800
7C00
6E00
6700
F380
ENDCHAR

STARTCHAR l
ENCODING 108
SWIDTH 333 0
DWIDTH 5 0
BBX 4 12 0 0
BITMAP
60
E0
60
60
60
60
60
60
60
60
60
F0
ENDCHAR

STARTCHAR m
ENCODING 109
SWIDTH 889 0
DWIDTH 15 0
BBX 14 8 0 0
BITMAP
6E70
F7B8
6318
6318
6318
6318
6318
F79C
ENDCHAR

STARTCHAR n
ENCODING 110
SWIDTH 611 0
DWIDTH 10 0
BBX 9 8 0 0
BITMAP
6E00
F700
6300
6300
6300
6300
6300
F380
ENDCHAR

STARTCHAR o
ENCODING 111
SWIDTH 556 0
DWIDTH 9 0
BBX 8 8 0 0
BITMAP
3C
66
C3
C3
C3
C3
66
3C
ENDCHAR

STARTCHAR p
ENCODING 112
SWIDTH 611 0
DWIDTH 10 0
BBX 9 12 0 -4
BITMAP
6F00
F380
6180
6180
6180
6180
7300
6E00
6000
6000
6000
F000
ENDCHAR

STARTCHAR q
ENCODING 113
SWIDTH 611 0
DWIDTH 10 0
BBX 9 12 0 -4
BITMAP
3D00
6700
C300
C300
C300
C300
E700
7B00
0300
0300
0300
0780
ENDCHAR

STARTCHAR r
ENCODING 114
SWIDTH 389 0
DWIDTH 7 0
BBX 6 8 0 0
BITMAP
6C
FC
60
60
60
60
60
F0
ENDCHAR

STARTCHAR s
ENCODING 115
SWIDTH 444 0
DWIDTH 7 0
BBX 6 8 0 0
BITMAP
7C
C4
C0
F8
3C
8C
8C
F8
ENDCHAR

STARTCHAR t
ENCODING 116
SWIDTH 333 0
DWIDTH 6 0
BBX 5 10 0 0
BITMAP
60
60
60
F8
60
60
60
60
68
30
ENDCHAR

STARTCHAR u
ENCODING 117
SWIDTH 611 0
DWIDTH 10 0
BBX 9 8 0 0
BITMAP
6300
E700
6300
6300
6300
6300
7700
3B80
ENDCHAR

STARTCHAR v
ENCODING 118
SWIDTH 556 0
DWIDTH 9 0
BBX 9 8 0 0
BITMAP
F380
6100
7200
3200
3400
3C00
1800
1800
ENDCHAR

STARTCHAR w
ENCODING 119
SWIDTH 833 0
DWIDTH 14 0
BBX 14 8 0 0
BITMAP
F11C
6188
7388
33D0
34D0
3CE0
1860
1860
ENDCHAR

STARTCHAR x
ENCODING 120
SWIDTH 500 0
DWIDTH 8 0
BBX 8 8 0 0
BITMAP
E3
72
34
38
1C
2C
4E
C7
ENDCHAR

STARTCHAR y
ENCODING 121
SWIDTH 556 0
DWIDTH 9 0
BBX 10 12 -1 -4
BITMAP
79C0
3080
3900
1900
1A00
1E00
0C00
0C00
0C00
4800
C800
7000
ENDCHAR

STARTCHAR z
ENCODING 122
SWIDTH 500 0
DWIDTH 8 0
BBX 6 8 1 0
BITMAP
FC
8C
18
30
70
64
C4
FC
ENDCHAR

STARTCHAR braceleft
ENCODING 123
SWIDTH 310 0
DWIDTH 5 0
BBX 4 14 0 -2
BITMAP
30
60
60
60
60
60
C0
60
60
60
60
60
60
30
ENDCHAR

STARTCHAR bar
ENCODING 124
SWIDTH 606 0
DWIDTH 10 0
BBX 1 12 4 0
BITMAP
80
80
80
80
80
80
80
80
80
80
80
80
ENDCHAR

STARTCHAR braceright
ENCODING 125
SWIDTH 310 0
DWIDTH 5 0
BBX 4 14 0 -2
BITMAP
C0
60
60
60
60
60
30
60
60
60
60
60
60
C0
ENDCHAR

STARTCHAR asciitilde
ENCODING 126
SWIDTH 606 0
DWIDTH 10 0
BBX 8 3 1 3
BITMAP
71
FF
8E
ENDCHAR

STARTCHAR exclamdown
ENCODING 161
SWIDTH 278 0
DWIDTH 5 0
BBX 3 12 1 -4
BITMAP
C0
C0
00
40
C0
C0
C0
C0
C0
C0
E0
C0
ENDCHAR

STARTCHAR cent
ENCODING 162
SWIDTH 500 0
DWIDTH 8 0
BBX 6 10 1 -1
BITMAP
08
3C
6C
D4
D0
D0
E0
74
38
20
ENDCHAR

STARTCHAR sterling
ENCODING 163
SWIDTH 500 0
DWIDTH 8 0
BBX 9 12 -1 0
BITMAP
0780
0C80
1880
1800
1800
1800
7E00
1800
3000
2080
7F80
CF00
ENDCHAR

STARTCHAR currency
ENCODING 164
SWIDTH 500 0
DWIDTH 8 0
BBX 8 8 0 2
BITMAP
5A
FF
66
C3
C3
66
FF
5A
ENDCHAR

STARTCHAR yen
ENCODING 165
SWIDTH 500 0
DWIDTH 8 0
BBX 8 11 0 0
BITMAP
41
E3
62
34
34
7E
18
7E
18
18
3C
ENDCHAR

STARTCHAR brokenbar
ENCODING 166
SWIDTH 606 0
DWIDTH 10 0
BBX 1 12 4 0
BITMAP
80
80
80
80
80
00
00
80
80
80
80
80
ENDCHAR

STARTCHAR section
ENCODING 167
SWIDTH 500 0
DWIDTH 8 0
BBX 6 16 1 -4
BITMAP
7C
C4
84
80
E0
78
9C
84
84
E4
78
1C
04
84
8C
F8
ENDCHAR

STARTCHAR dieresis
ENCODING 168
SWIDTH 333 0
DWIDTH 6 0
BBX 5 2 1 9
BITMAP
D8
D8
ENDCHAR

STARTCHAR copyright
ENCODING 169
SWIDTH 747 0
DWIDTH 13 0
BBX 12 12 0 0
BITMAP
0F00
39C0
6060
4720
CD30
8810
8810
CD30
4620
6060
39C0
0F00
ENDCHAR

STARTCHAR ordfeminine
ENCODING 170
SWIDTH 438 0
DWIDTH 7 0
BBX 5 7 1 5
BITMAP
60
B0
70
B0
D8
00
F8
ENDCHAR

STARTCHAR guillemotleft
ENCODING 171
SWIDTH 500 0
DWIDTH 8 0
BBX 7 7 0 1
BITMAP
12
24
6C
D8
6C
24
12
ENDCHAR

STARTCHAR logicalnot
ENCODING 172
SWIDTH 606 0
DWIDTH 10 0
BBX 8 5 0 1
BITMAP
FF
01
01
01
01
ENDCHAR

STARTCHAR hyphen
ENCODING 173
SWIDTH 333 0
DWIDTH 5 0
BBX 4 2 0 4
BITMAP
F0
F0
ENDCHAR

STARTCHAR registered
ENCODING 174
SWIDTH 747 0
DWIDTH 13 0
BBX 12 12 0 0
BITMAP
0F00
39C0
6060
5E20
C930
8910
8E10
C930
5DA0
6060
39C0
0F00
ENDCHAR

STARTCHAR macron
ENCODING 175
SWIDTH 333 0
DWIDTH 5 0
BBX 5 1 0 9
BITMAP
F8
ENDCHAR

STARTCHAR degree
ENCODING 176
SWIDTH 400 0
DWIDTH 7 0
BBX 4 4 1 7
BITMAP
60
90
90
60
ENDCHAR

STARTCHAR plusminus
ENCODING 177
SWIDTH 606 0
DWIDTH 10 0
BBX 9 9 0 0
BITMAP
0800
0800
0800
FF80
0800
0800
0800
0000
FF80
ENDCHAR

STARTCHAR twosuperior
ENCODING 178
SWIDTH 300 0
DWIDTH 5 0
BBX 5 7 0 4
BITMAP
70
B8
18
30
60
C0
F8
ENDCHAR

STARTCHAR threesuperior
ENCODING 179
SWIDTH 300 0
DWIDTH 5 0
BBX 4 7 0 4
BITMAP
E0
B0
20
70
30
90
E0
ENDCHAR

STARTCHAR acute
ENCODING 180
SWIDTH 333 0
DWIDTH 5 0
BBX 4 3 1 9
BITMAP
30
60
C0
ENDCHAR

STARTCHAR mu
ENCODING 181
SWIDTH 611 0
DWIDTH 10 0
BBX 9 12 0 -4
BITMAP
6300
E700
6300
6300
6300
6300
7700
7B80
6000
6000
6000
6000
ENDCHAR

STARTCHAR paragraph
ENCODING 182
SWIDTH 641 0
DWIDTH 11 0
BBX 10 15 0 -3
BITMAP
7FC0
C900
8900
C900
6900
3900
0900
0900
0900
0900
0900
0900
0900
0900
1F80
ENDCHAR

STARTCHAR periodcentered
ENCODING 183
SWIDTH 250 0
DWIDTH 4 0
BBX 2 2 1 4
BITMAP
C0
C0
ENDCHAR

STARTCHAR cedilla
ENCODING 184
SWIDTH 333 0
DWIDTH 5 0
BBX 3 4 1 -3
BITMAP
40
E0
20
C0
ENDCHAR

STARTCHAR onesuperior
ENCODING 185
SWIDTH 300 0
DWIDTH 5 0
BBX 4 7 0 4
BITMAP
60
E0
60
60
60
60
F0
ENDCHAR

STARTCHAR ordmasculine
ENCODING 186
SWIDTH 488 0
DWIDTH 8 0
BBX 5 7 1 5
BITMAP
70
D8
D8
D8
70
00
F8
ENDCHAR

STARTCHAR guillemotright
ENCODING 187
SWIDTH 500 0
DWIDTH 8 0
BBX 7 7 0 1
BITMAP
90
48
6C
36
6C
48
90
ENDCHAR

STARTCHAR onequarter
ENCODING 188
SWIDTH 750 0
DWIDTH 13 0
BBX 11 11 1 0
BITMAP
6080
E100
6100
6200
6240
64C0
F9C0
0B40
13E0
1040
20E0
ENDCHAR

STARTCHAR onehalf
ENCODING 189
SWIDTH 750 0
DWIDTH 13 0
BBX 12 11 0 0
BITMAP
6080
E100
6100
6200
62E0
6570
F830
0860
10C0
1180
21F0
ENDCHAR

STARTCHAR threequarters
ENCODING 190
SWIDTH 750 0
DWIDTH 13 0
BBX 11 11 1 0
BITMAP
E080
B100
2100
7200
3240
94C0
E9C0
0B40
13E0
1040
20E0
ENDCHAR

STARTCHAR questiondown
ENCODING 191
SWIDTH 444 0
DWIDTH 7 0
BBX 6 12 0 -4
BITMAP
18
18
00
08
08
18
70
E0
C0
C4
FC
78
ENDCHAR

STARTCHAR Agrave
ENCODING 192
SWIDTH 778 0
DWIDTH 13 0
BBX 12 13 0 0
BITMAP
1800
0C00
0600
0000
0600
0700
0B00
0B80
1180
20C0
3FC0
40E0
E1F0
ENDCHAR

STARTCHAR Aacute
ENCODING 193
SWIDTH 778 0
DWIDTH 13 0
BBX 12 13 0 0
BITMAP
0180
0300
0600
0000
0600
0700
0B00
0B80
1180
20C0
3FC0
40E0
E1F0
ENDCHAR

STARTCHAR Acircumflex
ENCODING 194
SWIDTH 778 0
DWIDTH 13 0
BBX 12 13 0 0
BITMAP
0600
0F00
1980
0000
0600
0700
0B00
0B80
1180
20C0
3FC0
40E0
E1F0
ENDCHAR

STARTCHAR Atilde
ENCODING 195
SWIDTH 778 0
DWIDTH 13 0
BBX 12 12 0 0
BITMAP
0E80
1700
0000
0600
0700
0B00
0B80
1180
20C0
3FC0
40E0
E1F0
ENDCHAR

STARTCHAR Adieresis
ENCODING 196
SWIDTH 778 0
DWIDTH 13 0
BBX 12 12 0 0
BITMAP
0D80
0D80
0000
0600
0700
0B00
0B80
1180
20C0
3FC0
40E0
E1F0
ENDCHAR

STARTCHAR Aring
ENCODING 197
SWIDTH 778 0
DWIDTH 13 0
BBX 12 13 0 0
BITMAP
0600
0900
0600
0000
0600
0700
0B00
0B80
1180
20C0
3FC0
40E0
E1F0
ENDCHAR

STARTCHAR AE
ENCODING 198
SWIDTH 1000 0
DWIDTH 16 0
BBX 15 12 0 0
BITMAP
07FE
03C2
02C2
06C0
04C4
0CFC
08C4
1FC0
30C0
20C2
60C2
F1FE
ENDCHAR

STARTCHAR Ccedilla
ENCODING 199
SWIDTH 722 0
DWIDTH 12 0
BBX 10 15 1 -3
BITMAP
1FC0
70C0
6040
C000
C000
C000
C000
C000
E000
6040
79C0
1F00
1C00
0400
1800
ENDCHAR

STARTCHAR Egrave
ENCODING 200
SWIDTH 611 0
DWIDTH 10 0
BBX 8 13 1 0
BITMAP
60
30
18
00
FF
61
60
62
7E
62
60
61
FF
ENDCHAR

STARTCHAR Eacute
ENCODING 201
SWIDTH 611 0
DWIDTH 10 0
BBX 8 13 1 0
BITMAP
0C
18
30
00
FF
61
60
62
7E
62
60
61
FF
ENDCHAR

STARTCHAR Ecircumflex
ENCODING 202
SWIDTH 611 0
DWIDTH 10 0
BBX 8 13 1 0
BITMAP
18
3C
66
00
FF
61
60
62
7E
62
60
61
FF
ENDCHAR

STARTCHAR Edieresis
ENCODING 203
SWIDTH 611 0
DWIDTH 10 0
BBX 8 12 1 0
BITMAP
36
36
00
FF
61
60
62
7E
62
60
61
FF
ENDCHAR

STARTCHAR Igrave
ENCODING 204
SWIDTH 389 0
DWIDTH 6 0
BBX 5 13 0 0
BITMAP
C0
60
30
00
78
30
30
30
30
30
30
30
78
ENDCHAR

STARTCHAR Iacute
ENCODING 205
SWIDTH 389 0
DWIDTH 6 0
BBX 4 13 1 0
BITMAP
30
60
C0
00
F0
60
60
60
60
60
60
60
F0
ENDCHAR

STARTCHAR Icircumflex
ENCODING 206
SWIDTH 389 0
DWIDTH 6 0
BBX 6 13 0 0
BITMAP
30
78
CC
00
78
30
30
30
30
30
30
30
78
ENDCHAR

STARTCHAR Idieresis
ENCODING 207
SWIDTH 389 0
DWIDTH 6 0
BBX 5 12 1 0
BITMAP
D8
D8
00
F0
60
60
60
60
60
60
60
F0
ENDCHAR

STARTCHAR Eth
ENCODING 208
SWIDTH 833 0
DWIDTH 14 0
BBX 13 12 0 0
BITMAP
FFC0
30F0
3030
3038
3018
3018
7E18
3018
3038
3030
30F0
7FC0
ENDCHAR

STARTCHAR Ntilde
ENCODING 209
SWIDTH 833 0
DWIDTH 13 0
BBX 12 12 0 0
BITMAP
0E80
1700
0000
E070
7020
7820
5E20
4720
43A0
41E0
40E0
E060
ENDCHAR

STARTCHAR Ograve
ENCODING 210
SWIDTH 833 0
DWIDTH 14 0
BBX 12 13 1 0
BITMAP
0C00
0600
0300
0000
1F80
71E0
6060
C070
C030
E030
6060
78E0
1F80
ENDCHAR

STARTCHAR Oacute
ENCODING 211
SWIDTH 833 0
DWIDTH 14 0
BBX 12 13 1 0
BITMAP
0300
0600
0C00
0000
1F80
71E0
6060
C070
C030
E030
6060
78E0
1F80
ENDCHAR

STARTCHAR Ocircumflex
ENCODING 212
SWIDTH 833 0
DWIDTH 14 0
BBX 12 13 1 0
BITMAP
0600
0F00
1980
0000
1F80
71E0
6060
C070
C030
E030
6060
78E0
1F80
ENDCHAR

STARTCHAR Otilde
ENCODING 213
SWIDTH 833 0
DWIDTH 14 0
BBX 12 12 1 0
BITMAP
0E80
1700
0000
1F80
71E0
6060
C070
C030
E030
6060
78E0
1F80
ENDCHAR

STARTCHAR Odieresis
ENCODING 214
SWIDTH 833 0
DWIDTH 14 0
BBX 12 12 1 0
BITMAP
1B00
1B00
0000
1F80
71E0
6060
C070
C030
E030
6060
78E0
1F80
ENDCHAR

STARTCHAR multiply
ENCODING 215
SWIDTH 606 0
DWIDTH 10 0
BBX 7 8 1 0
BITMAP
82
C6
6C
38
38
6C
C6
82
ENDCHAR

STARTCHAR Oslash
ENCODING 216
SWIDTH 833 0
DWIDTH 14 0
BBX 12 12 1 0
BITMAP
1F90
71E0
6060
C0F0
C130
C230
C430
C830
F030
6060
78E0
9F80
ENDCHAR

STARTCHAR Ugrave
ENCODING 217
SWIDTH 778 0
DWIDTH 13 0
BBX 11 13 1 0
BITMAP
1800
0C00
0600
0000
F0E0
6040
6040
6040
6040
6040
6040
3080
1F00
ENDCHAR

STARTCHAR Uacute
ENCODING 218
SWIDTH 778 0
DWIDTH 13 0
BBX 11 13 1 0
BITMAP
0180
0300
0600
0000
F0E0
6040
6040
6040
6040
6040
6040
3080
1F00
ENDCHAR

STARTCHAR Ucircumflex
ENCODING 219
SWIDTH 778 0
DWIDTH 13 0
BBX 11 13 1 0
BITMAP
0600
0F00
1980
0000
F0E0
6040
6040
6040
6040
6040
6040
3080
1F00
ENDCHAR

STARTCHAR Udieresis
ENCODING 220
SWIDTH 778 0
DWIDTH 13 0
BBX 11 12 1 0
BITMAP
1B00
1B00
0000
F0E0
6040
6040
6040
6040
6040
6040
3080
1F00
ENDCHAR

STARTCHAR Yacute
ENCODING 221
SWIDTH 667 0
DWIDTH 11 0
BBX 11 13 0 0
BITMAP
0180
0300
0600
0000
6060
F040
3880
1D00
0F00
0600
0600
0600
0F00
ENDCHAR

STARTCHAR Thorn
ENCODING 222
SWIDTH 611 0
DWIDTH 10 0
BBX 8 12 1 0
BITMAP
F0
60
60
7E
67
63
63
66
7C
60
60
F0
ENDCHAR

STARTCHAR germandbls
ENCODING 223
SWIDTH 611 0
DWIDTH 10 0
BBX 8 12 0 0
BITMAP
1C
26
62
62
66
E8
6C
6E
67
63
6A
FC
ENDCHAR

STARTCHAR agrave
ENCODING 224
SWIDTH 500 0
DWIDTH 8 0
BBX 7 12 0 0
BITMAP
60
30
18
00
38
4C
0C
3C
CC
CC
DC
6E
ENDCHAR

STARTCHAR aacute
ENCODING 225
SWIDTH 500 0
DWIDTH 8 0
BBX 7 12 0 0
BITMAP
0C
18
30
00
38
4C
0C
3C
CC
CC
DC
6E
ENDCHAR

STARTCHAR acircumflex
ENCODING 226
SWIDTH 500 0
DWIDTH 8 0
BBX 7 12 0 0
BITMAP
30
78
CC
00
38
4C
0C
3C
CC
CC
DC
6E
ENDCHAR

STARTCHAR atilde
ENCODING 227
SWIDTH 500 0
DWIDTH 8 0
BBX 7 11 0 0
BITMAP
74
B8
00
38
4C
0C
3C
CC
CC
DC
6E
ENDCHAR

STARTCHAR adieresis
ENCODING 228
SWIDTH 500 0
DWIDTH 8 0
BBX 7 11 0 0
BITMAP
6C
6C
00
38
4C
0C
3C
CC
CC
DC
6E
ENDCHAR

STARTCHAR aring
ENCODING 229
SWIDTH 500 0
DWIDTH 8 0
BBX 7 12 0 0
BITMAP
30
48
30
00
38
4C
0C
3C
CC
CC
DC
6E
ENDCHAR

STARTCHAR ae
ENCODING 230
SWIDTH 778 0
DWIDTH 13 0
BBX 12 8 0 0
BITMAP
39E0
4F30
0E30
3FF0
CE00
CF00
DB90
61E0
ENDCHAR

STARTCHAR ccedilla
ENCODING 231
SWIDTH 444 0
DWIDTH 7 0
BBX 6 11 0 -3
BITMAP
3C
6C
C4
C0
C0
E0
74
38
70
10
60
ENDCHAR

STARTCHAR egrave
ENCODING 232
SWIDTH 500 0
DWIDTH 8 0
BBX 7 12 0 0
BITMAP
60
30
18
00
3C
66
C6
FE
C0
E0
72
3C
ENDCHAR

STARTCHAR eacute
ENCODING 233
SWIDTH 500 0
DWIDTH 8 0
BBX 7 12 0 0
BITMAP
06
0C
18
00
3C
66
C6
FE
C0
E0
72
3C
ENDCHAR

STARTCHAR ecircumflex
ENCODING 234
SWIDTH 500 0
DWIDTH 8 0
BBX 7 12 0 0
BITMAP
18
3C
66
00
3C
66
C6
FE
C0
E0
72
3C
ENDCHAR

STARTCHAR edieresis
ENCODING 235
SWIDTH 500 0
DWIDTH 8 0
BBX 7 11 0 0
BITMAP
6C
6C
00
3C
66
C6
FE
C0
E0
72
3C
ENDCHAR

STARTCHAR igrave
ENCODING 236
SWIDTH 333 0
DWIDTH 5 0
BBX 4 12 0 0
BITMAP
C0
60
30
00
60
E0
60
60
60
60
60
F0
ENDCHAR

STARTCHAR iacute
ENCODING 237
SWIDTH 333 0
DWIDTH 5 0
BBX 4 12 0 0
BITMAP
30
60
C0
00
60
E0
60
60
60
60
60
F0
ENDCHAR

STARTCHAR icircumflex
ENCODING 238
SWIDTH 333 0
DWIDTH 5 0
BBX 6 12 -1 0
BITMAP
30
78
CC
00
30
70
30
30
30
30
30
78
ENDCHAR

STARTCHAR idieresis
ENCODING 239
SWIDTH 333 0
DWIDTH 5 0
BBX 5 11 0 0
BITMAP
D8
D8
00
60
E0
60
60
60
60
60
F0
ENDCHAR

STARTCHAR eth
ENCODING 240
SWIDTH 556 0
DWIDTH 9 0
BBX 8 12 0 0
BITMAP
76
18
6C
06
36
67
C3
C3
C3
C3
66
3C
ENDCHAR

STARTCHAR ntilde
ENCODING 241
SWIDTH 611 0
DWIDTH 10 0
BBX 9 11 0 0
BITMAP
3A00
5C00
0000
6E00
F700
6300
6300
6300
6300
6300
F380
ENDCHAR

STARTCHAR ograve
ENCODING 242
SWIDTH 556 0
DWIDTH 9 0
BBX 8 12 0 0
BITMAP
30
18
0C
00
3C
66
C3
C3
C3
C3
66
3C
ENDCHAR

STARTCHAR oacute
ENCODING 243
SWIDTH 556 0
DWIDTH 9 0
BBX 8 12 0 0
BITMAP
0C
18
30
00
3C
66
C3
C3
C3
C3
66
3C
ENDCHAR

STARTCHAR ocircumflex
ENCODING 244
SWIDTH 556 0
DWIDTH 9 0
BBX 8 12 0 0
BITMAP
18
3C
66
00
3C
66
C3
C3
C3
C3
66
3C
ENDCHAR

STARTCHAR otilde
ENCODING 245
SWIDTH 556 0
DWIDTH 9 0
BBX 8 11 0 0
BITMAP
3A
5C
00
3C
66
C3
C3
C3
C3
66
3C
ENDCHAR

STARTCHAR odieresis
ENCODING 246
SWIDTH 556 0
DWIDTH 9 0
BBX 8 11 0 0
BITMAP
6C
6C
00
3C
66
C3
C3
C3
C3
66
3C
ENDCHAR

STARTCHAR divide
ENCODING 247
SWIDTH 606 0
DWIDTH 10 0
BBX 8 9 1 0
BITMAP
18
18
00
00
FF
00
00
18
18
ENDCHAR

STARTCHAR oslash
ENCODING 248
SWIDTH 556 0
DWIDTH 9 0
BBX 8 8 0 0
BITMAP
3D
66
C7
CB
D3
E3
66
BC
ENDCHAR

STARTCHAR ugrave
ENCODING 249
SWIDTH 611 0
DWIDTH 10 0
BBX 9 12 0 0
BITMAP
3000
1800
0C00
0000
6300
E700
6300
6300
6300
6300
7700
3B80
ENDCHAR

STARTCHAR uacute
ENCODING 250
SWIDTH 611 0
DWIDTH 10 0
BBX 9 12 0 0
BITMAP
0600
0C00
1800
0000
6300
E700
6300
6300
6300
6300
7700
3B80
ENDCHAR

STARTCHAR ucircumflex
ENCODING 251
SWIDTH 611 0
DWIDTH 10 0
BBX 9 12 0 0
BITMAP
1800
3C00
6600
0000
6300
E700
6300
6300
6300
6300
7700
3B80
ENDCHAR

STARTCHAR udieresis
ENCODING 252
SWIDTH 611 0
DWIDTH 10 0
BBX 9 11 0 0
BITMAP
3600
3600
0000
6300
E700
6300
6300
6300
6300
7700
3B80
ENDCHAR

STARTCHAR yacute
ENCODING 253
SWIDTH 556 0
DWIDTH 9 0
BBX 10 16 -1 -4
BITMAP
0180
0300
0600
0000
79C0
3080
3900
1900
1A00
1E00
0C00
0C00
0C00
4800
C800
7000
ENDCHAR

STARTCHAR thorn
ENCODING 254
SWIDTH 611 0
DWIDTH 10 0
BBX 9 16 0 -4
BITMAP
6000
E000
6000
6000
6F00
7380
6180
6180
6180
6180
7300
6E00
6000
6000
6000
F000
ENDCHAR

STARTCHAR ydieresis
ENCODING 255
SWIDTH 556 0
DWIDTH 9 0
BBX 10 15 -1 -4
BITMAP
1B00
1B00
0000
79C0
3080
3900
1900
1A00
1E00
0C00
0C00
0C00
4800
C800
7000
ENDCHAR
ENDFONT
